<svg xmlns="http://www.w3.org/2000/svg" viewBox="0 0 120 120" fill="none" stroke="currentColor" stroke-width="4.5" stroke-linecap="round" stroke-linejoin="round">
  <!-- Hip/glute -->
  <path d="M75 18 C82 20, 88 28, 85 38"/>
  <!-- Upper leg (quad/hamstring) -->
  <path d="M85 38 C82 48, 72 55, 62 60 C52 65, 42 72, 38 82"/>
  <!-- Lower leg (calf/shin) -->
  <path d="M38 82 C35 88, 30 95, 28 100 C26 105, 30 108, 35 108"/>
  <!-- Knee area -->
  <path d="M62 60 C68 65, 72 72, 70 80"/>
  <!-- Second leg line -->
  <path d="M70 80 C68 88, 62 95, 58 100 C55 105, 52 108, 48 108"/>
  <!-- Foot -->
  <path d="M28 100 C22 102, 18 105, 20 108 L35 108"/>
</svg>
